<svg xmlns="http://www.w3.org/2000/svg" xmlns:xlink="http://www.w3.org/1999/xlink" width="1640" zoomAndPan="magnify" viewBox="0 0 1230 693.000001" height="924" preserveAspectRatio="xMidYMid meet" version="1.0"><defs><clipPath id="2cfab5c699"><path d="M 540 234.847656 L 886.117188 234.847656 L 886.117188 457.277344 L 540 457.277344 Z M 540 234.847656 " clip-rule="nonzero"/></clipPath><clipPath id="effcb86da0"><path d="M 343.898438 234.847656 L 690 234.847656 L 690 457.277344 L 343.898438 457.277344 Z M 343.898438 234.847656 " clip-rule="nonzero"/></clipPath></defs><g clip-path="url(#2cfab5c699)"><path fill="#000000" d="M 779.710938 234.960938 L 669.410156 234.960938 C 667.613281 234.960938 665.980469 236.105469 665.488281 237.738281 C 664.835938 239.375 665.324219 241.335938 666.796875 242.480469 C 683.300781 256.53125 696.210938 274.671875 704.054688 295.261719 L 779.875 295.261719 C 805.203125 295.261719 825.957031 315.851562 825.957031 341.34375 L 825.957031 350.984375 C 825.957031 376.3125 805.367188 397.066406 779.875 397.066406 L 647.1875 397.066406 C 621.859375 397.066406 601.105469 376.476562 601.105469 350.984375 L 601.105469 341.179688 C 601.105469 339.21875 601.269531 337.421875 601.433594 335.621094 C 602.085938 330.394531 599.796875 325.164062 595.386719 322.222656 C 591.792969 319.773438 587.542969 318.464844 582.96875 318.464844 L 555.351562 318.464844 C 548.160156 318.464844 542.277344 323.855469 541.460938 331.046875 C 541.132812 334.316406 540.972656 337.746094 540.972656 341.179688 L 540.972656 350.820312 C 540.972656 409.320312 588.6875 457.035156 647.1875 457.035156 L 779.875 457.035156 C 838.375 457.035156 886.09375 409.320312 886.09375 350.820312 L 886.09375 341.179688 C 885.929688 282.679688 838.214844 234.960938 779.710938 234.960938 Z M 779.710938 234.960938 " fill-opacity="1" fill-rule="nonzero"/></g><g clip-path="url(#effcb86da0)"><path fill="#264478" d="M 404.195312 341.179688 C 404.195312 315.851562 424.785156 295.097656 450.277344 295.097656 L 582.96875 295.097656 C 608.296875 295.097656 629.050781 315.6875 629.050781 341.179688 L 629.050781 350.820312 C 629.050781 352.78125 628.886719 354.578125 628.722656 356.375 C 628.070312 361.605469 630.355469 366.835938 634.769531 369.773438 C 638.363281 372.226562 642.613281 373.535156 647.1875 373.535156 L 674.804688 373.535156 C 681.992188 373.535156 687.875 368.140625 688.53125 360.953125 C 688.855469 357.683594 689.019531 354.25 689.019531 350.820312 L 689.019531 341.179688 C 689.019531 282.679688 641.304688 234.960938 582.804688 234.960938 L 450.113281 234.960938 C 391.613281 234.960938 343.898438 282.679688 343.898438 341.179688 L 343.898438 350.820312 C 343.898438 409.320312 391.613281 457.035156 450.113281 457.035156 L 560.417969 457.035156 C 562.214844 457.035156 563.847656 455.890625 564.339844 454.257812 C 564.992188 452.625 564.5 450.664062 563.03125 449.519531 C 546.527344 435.464844 533.617188 417.328125 525.773438 396.738281 L 450.277344 396.738281 C 424.949219 396.902344 404.195312 376.3125 404.195312 350.984375 Z M 404.195312 341.179688 " fill-opacity="1" fill-rule="nonzero"/></g></svg>