<svg xmlns="http://www.w3.org/2000/svg" xmlns:xlink="http://www.w3.org/1999/xlink" width="1640" zoomAndPan="magnify" viewBox="0 0 1230 693.000001" height="924" preserveAspectRatio="xMidYMid meet" version="1.0"><defs><g/><clipPath id="f19ffe37bf"><path d="M 95.777344 239.558594 L 1134.527344 239.558594 L 1134.527344 452.253906 L 95.777344 452.253906 Z M 95.777344 239.558594 " clip-rule="nonzero"/></clipPath><clipPath id="6e499a6a8e"><path d="M 876 301.539062 L 1014.621094 301.539062 L 1014.621094 390.660156 L 876 390.660156 Z M 876 301.539062 " clip-rule="nonzero"/></clipPath><clipPath id="5debaa6679"><path d="M 797.4375 301.539062 L 936 301.539062 L 936 390.660156 L 797.4375 390.660156 Z M 797.4375 301.539062 " clip-rule="nonzero"/></clipPath></defs><g clip-path="url(#f19ffe37bf)"><path fill="#fefefe" d="M 1027.910156 452.300781 L 201.96875 452.300781 C 143.355469 452.300781 95.675781 404.621094 95.675781 346.011719 C 95.675781 287.40625 143.355469 239.722656 201.96875 239.722656 L 1027.910156 239.722656 C 1086.527344 239.722656 1134.207031 287.402344 1134.207031 346.011719 C 1134.207031 404.621094 1086.527344 452.300781 1027.910156 452.300781 Z M 201.96875 248.320312 C 148.101562 248.320312 104.277344 292.148438 104.277344 346.011719 C 104.277344 399.878906 148.101562 443.699219 201.96875 443.699219 L 1027.910156 443.699219 C 1081.78125 443.699219 1125.605469 399.878906 1125.605469 346.011719 C 1125.605469 292.148438 1081.78125 248.320312 1027.910156 248.320312 Z M 201.96875 248.320312 " fill-opacity="1" fill-rule="nonzero"/></g><g fill="#fefefe" fill-opacity="1"><g transform="translate(249.146178, 377.829796)"><g><path d="M 65.21875 -17.71875 L 66.5 -18.765625 L 75.171875 -11.78125 L 74.015625 -10.21875 C 72.722656 -8.582031 70.820312 -6.921875 68.3125 -5.234375 C 65.8125 -3.554688 62.597656 -2.15625 58.671875 -1.03125 C 54.753906 0.0820312 49.863281 0.640625 44 0.640625 C 32.4375 0.640625 23.675781 -2.894531 17.71875 -9.96875 C 14.875 -13.5 12.675781 -17.941406 11.125 -23.296875 C 10.4375 -25.878906 9.921875 -28.378906 9.578125 -30.796875 C 9.234375 -33.210938 9.0625 -36.101562 9.0625 -39.46875 L 9.0625 -50.84375 C 9.0625 -57.664062 9.789062 -63.359375 11.25 -67.921875 C 12.71875 -72.492188 14.875 -76.507812 17.71875 -79.96875 C 23.675781 -87.039062 32.4375 -90.578125 44 -90.578125 C 49.769531 -90.578125 54.617188 -90.015625 58.546875 -88.890625 C 62.472656 -87.765625 65.664062 -86.382812 68.125 -84.75 C 70.582031 -83.113281 72.457031 -81.472656 73.75 -79.828125 L 75.046875 -78.40625 L 66.25 -71.03125 L 64.953125 -72.59375 C 63.742188 -74.144531 61.539062 -75.648438 58.34375 -77.109375 C 55.15625 -78.578125 50.375 -79.3125 44 -79.3125 C 35.800781 -79.3125 29.847656 -76.941406 26.140625 -72.203125 C 24.242188 -69.785156 22.816406 -66.957031 21.859375 -63.71875 C 20.910156 -60.488281 20.4375 -56.195312 20.4375 -50.84375 L 20.4375 -39.46875 C 20.4375 -34.113281 20.910156 -29.753906 21.859375 -26.390625 C 22.816406 -23.023438 24.242188 -20.132812 26.140625 -17.71875 C 29.847656 -12.976562 35.800781 -10.609375 44 -10.609375 C 48.476562 -10.609375 52.078125 -10.992188 54.796875 -11.765625 C 57.515625 -12.546875 59.671875 -13.492188 61.265625 -14.609375 C 62.859375 -15.734375 64.175781 -16.769531 65.21875 -17.71875 Z M 65.21875 -17.71875 "/></g></g></g><g fill="#fefefe" fill-opacity="1"><g transform="translate(329.49587, 377.829796)"><g><path d="M 56.671875 -55.375 C 59.515625 -52.269531 61.710938 -48.796875 63.265625 -44.953125 C 64.816406 -41.117188 65.59375 -37.304688 65.59375 -33.515625 L 65.59375 -29.109375 C 65.59375 -25.234375 64.816406 -21.632812 63.265625 -18.3125 C 61.710938 -14.988281 59.515625 -11.773438 56.671875 -8.671875 C 53.828125 -5.566406 50.613281 -3.171875 47.03125 -1.484375 C 43.445312 0.191406 39.847656 1.03125 36.234375 1.03125 L 33 1.03125 C 29.375 1.03125 25.769531 0.191406 22.1875 -1.484375 C 18.613281 -3.171875 15.398438 -5.566406 12.546875 -8.671875 C 9.703125 -11.773438 7.503906 -14.988281 5.953125 -18.3125 C 4.398438 -21.632812 3.625 -25.234375 3.625 -29.109375 L 3.625 -33.515625 C 3.625 -37.304688 4.398438 -41.117188 5.953125 -44.953125 C 7.503906 -48.796875 9.703125 -52.269531 12.546875 -55.375 C 15.398438 -58.394531 18.613281 -60.765625 22.1875 -62.484375 C 25.769531 -64.210938 29.375 -65.078125 33 -65.078125 L 36.234375 -65.078125 C 39.847656 -65.078125 43.445312 -64.210938 47.03125 -62.484375 C 50.613281 -60.765625 53.828125 -58.394531 56.671875 -55.375 Z M 36.234375 -10.875 C 38.472656 -10.875 40.753906 -11.429688 43.078125 -12.546875 C 45.410156 -13.671875 47.441406 -15.3125 49.171875 -17.46875 C 52.535156 -21.351562 54.21875 -25.707031 54.21875 -30.53125 L 54.21875 -33.515625 C 54.21875 -36.097656 53.785156 -38.507812 52.921875 -40.75 C 52.054688 -43 50.804688 -45.070312 49.171875 -46.96875 C 47.441406 -49.125 45.410156 -50.757812 43.078125 -51.875 C 40.753906 -53 38.472656 -53.5625 36.234375 -53.5625 L 33 -53.5625 C 30.75 -53.5625 28.457031 -53 26.125 -51.875 C 23.800781 -50.757812 21.78125 -49.125 20.0625 -46.96875 C 18.414062 -45.070312 17.160156 -43 16.296875 -40.75 C 15.441406 -38.507812 15.015625 -36.097656 15.015625 -33.515625 L 15.015625 -30.53125 C 15.015625 -25.707031 16.695312 -21.351562 20.0625 -17.46875 C 21.78125 -15.3125 23.800781 -13.671875 26.125 -12.546875 C 28.457031 -11.429688 30.75 -10.875 33 -10.875 Z M 36.234375 -10.875 "/></g></g></g><g fill="#fefefe" fill-opacity="1"><g transform="translate(398.847617, 377.829796)"><g><path d="M 61.71875 -54.46875 C 64.394531 -51.445312 66.441406 -48.015625 67.859375 -44.171875 C 69.285156 -40.335938 70 -36.523438 70 -32.734375 L 70 0.265625 L 59 0.265625 L 59 -31.3125 C 59 -34.59375 58.175781 -37.9375 56.53125 -41.34375 C 54.894531 -44.75 52.71875 -47.59375 50 -49.875 C 47.289062 -52.164062 44.335938 -53.3125 41.140625 -53.3125 L 37.90625 -53.3125 C 35.0625 -53.3125 32.601562 -52.640625 30.53125 -51.296875 C 28.46875 -49.960938 26.742188 -48.320312 25.359375 -46.375 C 23.984375 -44.4375 22.882812 -42.519531 22.0625 -40.625 C 21.238281 -38.726562 20.65625 -37.21875 20.3125 -36.09375 L 20.3125 0.265625 L 9.0625 0.265625 L 9.0625 -64.828125 L 20.3125 -64.828125 L 20.3125 -56.15625 C 22.644531 -58.65625 25.40625 -60.660156 28.59375 -62.171875 C 31.78125 -63.679688 34.882812 -64.4375 37.90625 -64.4375 L 41.140625 -64.4375 C 45.109375 -64.4375 48.90625 -63.53125 52.53125 -61.71875 C 55.894531 -59.988281 58.957031 -57.570312 61.71875 -54.46875 Z M 61.71875 -54.46875 "/></g></g></g><g fill="#fefefe" fill-opacity="1"><g transform="translate(476.997737, 377.829796)"><g><path d="M 61.71875 -54.46875 C 64.394531 -51.445312 66.441406 -48.015625 67.859375 -44.171875 C 69.285156 -40.335938 70 -36.523438 70 -32.734375 L 70 0.265625 L 59 0.265625 L 59 -31.3125 C 59 -34.59375 58.175781 -37.9375 56.53125 -41.34375 C 54.894531 -44.75 52.71875 -47.59375 50 -49.875 C 47.289062 -52.164062 44.335938 -53.3125 41.140625 -53.3125 L 37.90625 -53.3125 C 35.0625 -53.3125 32.601562 -52.640625 30.53125 -51.296875 C 28.46875 -49.960938 26.742188 -48.320312 25.359375 -46.375 C 23.984375 -44.4375 22.882812 -42.519531 22.0625 -40.625 C 21.238281 -38.726562 20.65625 -37.21875 20.3125 -36.09375 L 20.3125 0.265625 L 9.0625 0.265625 L 9.0625 -64.828125 L 20.3125 -64.828125 L 20.3125 -56.15625 C 22.644531 -58.65625 25.40625 -60.660156 28.59375 -62.171875 C 31.78125 -63.679688 34.882812 -64.4375 37.90625 -64.4375 L 41.140625 -64.4375 C 45.109375 -64.4375 48.90625 -63.53125 52.53125 -61.71875 C 55.894531 -59.988281 58.957031 -57.570312 61.71875 -54.46875 Z M 61.71875 -54.46875 "/></g></g></g><g fill="#fefefe" fill-opacity="1"><g transform="translate(555.147833, 377.829796)"><g><path d="M 65.984375 -36.234375 L 65.984375 -28.46875 L 65.859375 -26.65625 L 16.5625 -26.65625 C 16.988281 -24.664062 17.695312 -23.003906 18.6875 -21.671875 C 19.6875 -20.335938 20.921875 -18.894531 22.390625 -17.34375 C 26.179688 -13.113281 30.144531 -11 34.28125 -11 L 57.703125 -11 L 57.703125 0.265625 L 34.28125 0.265625 C 26.695312 0.265625 19.925781 -2.972656 13.96875 -9.453125 C 11.125 -12.460938 8.925781 -15.5625 7.375 -18.75 C 5.820312 -21.945312 5.046875 -25.488281 5.046875 -29.375 L 5.046875 -35.1875 C 5.046875 -43.21875 8.019531 -50.46875 13.96875 -56.9375 C 16.820312 -59.945312 20.015625 -62.078125 23.546875 -63.328125 C 27.085938 -64.585938 30.664062 -65.21875 34.28125 -65.21875 L 37.515625 -65.21875 C 42.347656 -65.21875 46.898438 -63.921875 51.171875 -61.328125 C 55.441406 -58.742188 58.9375 -55.269531 61.65625 -50.90625 C 64.375 -46.550781 65.816406 -41.660156 65.984375 -36.234375 Z M 34.28125 -53.5625 C 30.40625 -53.5625 27.238281 -52.632812 24.78125 -50.78125 C 22.320312 -48.925781 20.441406 -46.769531 19.140625 -44.3125 C 17.847656 -41.851562 16.988281 -39.675781 16.5625 -37.78125 L 54.46875 -37.78125 C 54.039062 -40.625 53.03125 -43.234375 51.4375 -45.609375 C 49.84375 -47.984375 47.835938 -49.898438 45.421875 -51.359375 C 43.003906 -52.828125 40.367188 -53.5625 37.515625 -53.5625 Z M 34.28125 -53.5625 "/></g></g></g><g fill="#fefefe" fill-opacity="1"><g transform="translate(627.346116, 377.829796)"><g><path d="M 38.421875 -53.3125 C 34.546875 -53.3125 31.078125 -52.359375 28.015625 -50.453125 C 24.953125 -48.554688 22.535156 -46.117188 20.765625 -43.140625 C 18.992188 -40.171875 18.109375 -37.09375 18.109375 -33.90625 L 18.109375 -31.828125 C 18.109375 -28.460938 19.035156 -25.179688 20.890625 -21.984375 C 22.742188 -18.796875 25.222656 -16.144531 28.328125 -14.03125 C 31.441406 -11.925781 34.804688 -10.875 38.421875 -10.875 L 41.921875 -10.875 C 47.960938 -10.875 53.140625 -13.585938 57.453125 -19.015625 L 58.609375 -20.4375 L 68.3125 -13.203125 L 67.03125 -11.640625 C 64.007812 -7.847656 60.382812 -4.832031 56.15625 -2.59375 C 51.582031 -0.175781 46.835938 1.03125 41.921875 1.03125 L 38.421875 1.03125 C 34.203125 1.03125 30.0625 0.125 26 -1.6875 C 24.101562 -2.539062 22.3125 -3.570312 20.625 -4.78125 C 18.945312 -5.988281 17.378906 -7.328125 15.921875 -8.796875 C 12.898438 -11.898438 10.523438 -15.566406 8.796875 -19.796875 C 7.929688 -21.773438 7.304688 -23.5625 6.921875 -25.15625 C 6.535156 -26.757812 6.34375 -28.507812 6.34375 -30.40625 L 6.34375 -35.328125 C 6.34375 -39.117188 7.179688 -42.648438 8.859375 -45.921875 C 10.546875 -49.203125 12.898438 -52.351562 15.921875 -55.375 C 18.847656 -58.394531 22.207031 -60.769531 26 -62.5 C 30.0625 -64.3125 34.203125 -65.21875 38.421875 -65.21875 L 41.921875 -65.21875 C 46.835938 -65.21875 51.582031 -64.007812 56.15625 -61.59375 C 60.382812 -59.34375 64.007812 -56.320312 67.03125 -52.53125 L 68.3125 -50.984375 L 58.609375 -43.734375 L 57.453125 -45.15625 C 53.222656 -50.59375 48.046875 -53.3125 41.921875 -53.3125 Z M 38.421875 -53.3125 "/></g></g></g><g fill="#fefefe" fill-opacity="1"><g transform="translate(699.544375, 377.829796)"><g><path d="M 42.828125 -55.375 L 17.71875 -55.375 L 17.71875 -29.890625 C 17.71875 -25.921875 18.535156 -22.507812 20.171875 -19.65625 C 21.816406 -16.8125 23.910156 -14.632812 26.453125 -13.125 C 29.003906 -11.625 31.613281 -10.875 34.28125 -10.875 L 42.828125 -10.875 L 42.828125 0.390625 L 33.765625 0.390625 C 30.234375 0.390625 26.804688 -0.296875 23.484375 -1.671875 C 20.160156 -3.054688 17.207031 -4.957031 14.625 -7.375 C 9.101562 -12.894531 6.34375 -19.707031 6.34375 -27.8125 L 6.34375 -96.90625 L 17.71875 -96.90625 L 17.71875 -66.890625 L 42.828125 -66.890625 Z M 42.828125 -55.375 "/></g></g></g><g clip-path="url(#6e499a6a8e)"><path fill="#fefefe" d="M 971.757812 301.582031 L 927.636719 301.582031 C 926.917969 301.582031 926.265625 302.039062 926.066406 302.695312 C 925.808594 303.347656 926.003906 304.132812 926.589844 304.589844 C 933.191406 310.210938 938.355469 317.464844 941.492188 325.699219 L 971.820312 325.699219 C 981.953125 325.699219 990.253906 333.9375 990.253906 344.132812 L 990.253906 347.988281 C 990.253906 358.121094 982.019531 366.421875 971.820312 366.421875 L 918.746094 366.421875 C 908.617188 366.421875 900.316406 358.1875 900.316406 347.988281 L 900.316406 344.066406 C 900.316406 343.285156 900.382812 342.5625 900.445312 341.84375 C 900.707031 339.753906 899.792969 337.664062 898.027344 336.484375 C 896.589844 335.503906 894.890625 334.980469 893.058594 334.980469 L 882.015625 334.980469 C 879.136719 334.980469 876.785156 337.140625 876.457031 340.015625 C 876.328125 341.324219 876.261719 342.695312 876.261719 344.066406 L 876.261719 347.925781 C 876.261719 371.324219 895.347656 390.410156 918.746094 390.410156 L 971.820312 390.410156 C 995.222656 390.410156 1014.308594 371.324219 1014.308594 347.925781 L 1014.308594 344.066406 C 1014.242188 320.667969 995.15625 301.582031 971.757812 301.582031 Z M 971.757812 301.582031 " fill-opacity="1" fill-rule="nonzero"/></g><g clip-path="url(#5debaa6679)"><path fill="#fefefe" d="M 821.554688 344.066406 C 821.554688 333.9375 829.789062 325.636719 839.988281 325.636719 L 893.058594 325.636719 C 903.191406 325.636719 911.492188 333.871094 911.492188 344.066406 L 911.492188 347.925781 C 911.492188 348.707031 911.425781 349.425781 911.363281 350.144531 C 911.101562 352.238281 912.015625 354.328125 913.78125 355.507812 C 915.21875 356.488281 916.917969 357.007812 918.746094 357.007812 L 929.792969 357.007812 C 932.667969 357.007812 935.023438 354.851562 935.285156 351.976562 C 935.414062 350.667969 935.480469 349.296875 935.480469 347.925781 L 935.480469 344.066406 C 935.480469 320.667969 916.394531 301.582031 892.996094 301.582031 L 839.921875 301.582031 C 816.523438 301.582031 797.4375 320.667969 797.4375 344.066406 L 797.4375 347.925781 C 797.4375 371.324219 816.523438 390.410156 839.921875 390.410156 L 884.039062 390.410156 C 884.757812 390.410156 885.414062 389.953125 885.609375 389.296875 C 885.871094 388.644531 885.675781 387.859375 885.085938 387.402344 C 878.484375 381.78125 873.320312 374.527344 870.183594 366.289062 L 839.988281 366.289062 C 829.855469 366.355469 821.554688 358.121094 821.554688 347.988281 Z M 821.554688 344.066406 " fill-opacity="1" fill-rule="nonzero"/></g></svg>