<svg xmlns="http://www.w3.org/2000/svg" xmlns:xlink="http://www.w3.org/1999/xlink" width="1640" zoomAndPan="magnify" viewBox="0 0 1230 693.000001" height="924" preserveAspectRatio="xMidYMid meet" version="1.0"><defs><filter x="0%" y="0%" width="100%" height="100%" id="1bc55592d2"><feColorMatrix values="0 0 0 0 1 0 0 0 0 1 0 0 0 0 1 0 0 0 1 0" color-interpolation-filters="sRGB"/></filter><g/><clipPath id="c3b32163a2"><path d="M 0.886719 0 L 1229.113281 0 L 1229.113281 692 L 0.886719 692 Z M 0.886719 0 " clip-rule="nonzero"/></clipPath><clipPath id="f8d9a674cf"><path d="M 0.886719 0 L 1229.113281 0 L 1229.113281 692 L 0.886719 692 Z M 0.886719 0 " clip-rule="nonzero"/></clipPath><clipPath id="4f9b04487a"><path d="M 0.886719 0 L 1229.113281 0 L 1229.113281 692 L 0.886719 692 Z M 0.886719 0 " clip-rule="nonzero"/></clipPath><clipPath id="ab75d5b077"><rect x="0" width="1230" y="0" height="692"/></clipPath><clipPath id="d81ec585e8"><rect x="0" width="1230" y="0" height="692"/></clipPath><mask id="271328ea81"><g filter="url(#1bc55592d2)"><g transform="matrix(1, 0, 0, 1, 0, -0.000000000000066872)"><g clip-path="url(#d81ec585e8)"><g clip-path="url(#4f9b04487a)"><g transform="matrix(1, 0, 0, 1, 0, -0.000000000000066872)"><g clip-path="url(#ab75d5b077)"><g fill="#000000" fill-opacity="1"><g transform="translate(394.295364, 437.243904)"><g><path d="M 163.515625 -254.59375 L 184.734375 -254.59375 L 184.734375 1.46875 L 163.515625 1.46875 L 163.515625 -131.6875 L 46.828125 -131.6875 L 46.828125 1.46875 L 25.609375 1.46875 L 25.609375 -254.59375 L 46.828125 -254.59375 L 46.828125 -154.734375 L 163.515625 -154.734375 Z M 163.515625 -254.59375 "/></g></g></g><g fill="#000000" fill-opacity="1"><g transform="translate(604.631268, 437.243904)"><g><path d="M 88.890625 0 C 78.398438 0 68.582031 -2.375 59.4375 -7.125 C 50.289062 -11.882812 42.300781 -18.347656 35.46875 -26.515625 C 28.644531 -34.691406 23.34375 -43.773438 19.5625 -53.765625 C 15.789062 -63.765625 13.90625 -74.007812 13.90625 -84.5 L 13.90625 -184 L 34.75 -184 L 34.75 -88.515625 C 34.75 -78.273438 37.125 -67.972656 41.875 -57.609375 C 46.632812 -47.242188 53.097656 -38.585938 61.265625 -31.640625 C 69.441406 -24.691406 78.648438 -21.21875 88.890625 -21.21875 L 98.03125 -21.21875 C 107.539062 -21.21875 116.078125 -23.65625 123.640625 -28.53125 C 131.203125 -33.40625 137.664062 -39.804688 143.03125 -47.734375 C 148.394531 -55.660156 152.414062 -64.378906 155.09375 -73.890625 L 155.09375 -184 L 176.3125 -184 L 176.3125 0 L 155.09375 0 L 155.09375 -35.484375 C 151.925781 -29.140625 147.171875 -23.222656 140.828125 -17.734375 C 134.492188 -12.253906 127.546875 -7.925781 119.984375 -4.75 C 112.421875 -1.582031 105.101562 0 98.03125 0 Z M 88.890625 0 "/></g></g></g><g fill="#000000" fill-opacity="1"><g transform="translate(806.553715, 437.243904)"><g><path d="M 110.84375 -184 C 121.320312 -184 131.132812 -181.5 140.28125 -176.5 C 149.425781 -171.5 157.472656 -164.851562 164.421875 -156.5625 C 171.367188 -148.269531 176.796875 -139 180.703125 -128.75 C 184.609375 -118.507812 186.5625 -108.148438 186.5625 -97.671875 L 186.5625 -83.765625 C 186.5625 -73.273438 184.609375 -63.03125 180.703125 -53.03125 C 176.796875 -43.039062 171.367188 -33.957031 164.421875 -25.78125 C 157.472656 -17.613281 149.425781 -11.148438 140.28125 -6.390625 C 131.132812 -1.640625 121.320312 0.734375 110.84375 0.734375 L 25.609375 0.734375 L 25.609375 -273.25 L 46.453125 -273.25 L 46.453125 -164.96875 C 53.523438 -170.582031 61.023438 -175.15625 68.953125 -178.6875 C 76.878906 -182.226562 87.789062 -184 101.6875 -184 C 108.519531 -184 112.910156 -184 114.859375 -184 C 116.804688 -184 117.351562 -184 116.5 -184 C 115.644531 -184 114.488281 -184 113.03125 -184 C 111.570312 -184 110.84375 -184 110.84375 -184 Z M 166.4375 -87.796875 L 166.4375 -93.640625 C 166.4375 -100.960938 165.09375 -108.523438 162.40625 -116.328125 C 159.726562 -124.128906 156.007812 -131.320312 151.25 -137.90625 C 146.5 -144.488281 141.195312 -149.363281 135.34375 -152.53125 C 133.632812 -153.75 130.21875 -155.640625 125.09375 -158.203125 C 119.976562 -160.765625 112.785156 -162.046875 103.515625 -162.046875 C 90.347656 -162.046875 79.554688 -159.546875 71.140625 -154.546875 C 62.734375 -149.546875 56.515625 -143.753906 52.484375 -137.171875 C 48.460938 -130.585938 46.453125 -124.613281 46.453125 -119.25 L 46.453125 -21.21875 L 110.84375 -21.21875 C 121.082031 -21.21875 130.40625 -24.628906 138.8125 -31.453125 C 147.226562 -38.285156 153.9375 -46.820312 158.9375 -57.0625 C 163.9375 -67.300781 166.4375 -77.546875 166.4375 -87.796875 Z M 166.4375 -87.796875 "/></g></g></g></g></g></g></g></g></g></mask><clipPath id="f16a03e92a"><path d="M 0.886719 0 L 1229.113281 0 L 1229.113281 692 L 0.886719 692 Z M 0.886719 0 " clip-rule="nonzero"/></clipPath><linearGradient x1="-525.104913" gradientTransform="matrix(0.748772, 0, 0, 0.748987, 394.070103, 91.220142)" y1="341" x2="1115.217325" gradientUnits="userSpaceOnUse" y2="341" id="11bd726b7f"><stop stop-opacity="1" stop-color="rgb(31.759644%, 43.919373%, 100%)" offset="0"/><stop stop-opacity="1" stop-color="rgb(31.759644%, 43.919373%, 100%)" offset="0.25"/><stop stop-opacity="1" stop-color="rgb(31.759644%, 43.919373%, 100%)" offset="0.3125"/><stop stop-opacity="1" stop-color="rgb(31.771851%, 43.917847%, 99.995422%)" offset="0.320312"/><stop stop-opacity="1" stop-color="rgb(32.30896%, 43.887329%, 99.812317%)" offset="0.324219"/><stop stop-opacity="1" stop-color="rgb(32.833862%, 43.856812%, 99.635315%)" offset="0.328125"/><stop stop-opacity="1" stop-color="rgb(33.357239%, 43.826294%, 99.456787%)" offset="0.332031"/><stop stop-opacity="1" stop-color="rgb(33.882141%, 43.797302%, 99.279785%)" offset="0.335938"/><stop stop-opacity="1" stop-color="rgb(34.405518%, 43.766785%, 99.101257%)" offset="0.339844"/><stop stop-opacity="1" stop-color="rgb(34.93042%, 43.736267%, 98.924255%)" offset="0.34375"/><stop stop-opacity="1" stop-color="rgb(35.455322%, 43.70575%, 98.745728%)" offset="0.347656"/><stop stop-opacity="1" stop-color="rgb(35.980225%, 43.676758%, 98.568726%)" offset="0.351562"/><stop stop-opacity="1" stop-color="rgb(36.503601%, 43.64624%, 98.390198%)" offset="0.355469"/><stop stop-opacity="1" stop-color="rgb(37.028503%, 43.617249%, 98.21167%)" offset="0.359375"/><stop stop-opacity="1" stop-color="rgb(37.553406%, 43.586731%, 98.033142%)" offset="0.363281"/><stop stop-opacity="1" stop-color="rgb(38.078308%, 43.556213%, 97.85614%)" offset="0.367188"/><stop stop-opacity="1" stop-color="rgb(38.601685%, 43.525696%, 97.677612%)" offset="0.371094"/><stop stop-opacity="1" stop-color="rgb(39.126587%, 43.496704%, 97.50061%)" offset="0.375"/><stop stop-opacity="1" stop-color="rgb(39.649963%, 43.466187%, 97.322083%)" offset="0.378906"/><stop stop-opacity="1" stop-color="rgb(40.174866%, 43.435669%, 97.145081%)" offset="0.382812"/><stop stop-opacity="1" stop-color="rgb(40.699768%, 43.405151%, 96.966553%)" offset="0.386719"/><stop stop-opacity="1" stop-color="rgb(41.22467%, 43.37616%, 96.789551%)" offset="0.390625"/><stop stop-opacity="1" stop-color="rgb(41.748047%, 43.345642%, 96.611023%)" offset="0.394531"/><stop stop-opacity="1" stop-color="rgb(42.272949%, 43.315125%, 96.434021%)" offset="0.398438"/><stop stop-opacity="1" stop-color="rgb(42.796326%, 43.284607%, 96.255493%)" offset="0.402344"/><stop stop-opacity="1" stop-color="rgb(43.321228%, 43.255615%, 96.078491%)" offset="0.40625"/><stop stop-opacity="1" stop-color="rgb(43.84613%, 43.225098%, 95.899963%)" offset="0.410156"/><stop stop-opacity="1" stop-color="rgb(44.371033%, 43.19458%, 95.722961%)" offset="0.414062"/><stop stop-opacity="1" stop-color="rgb(44.894409%, 43.164062%, 95.544434%)" offset="0.417969"/><stop stop-opacity="1" stop-color="rgb(45.419312%, 43.135071%, 95.367432%)" offset="0.421875"/><stop stop-opacity="1" stop-color="rgb(45.942688%, 43.104553%, 95.188904%)" offset="0.425781"/><stop stop-opacity="1" stop-color="rgb(46.46759%, 43.074036%, 95.011902%)" offset="0.429688"/><stop stop-opacity="1" stop-color="rgb(46.992493%, 43.043518%, 94.833374%)" offset="0.433594"/><stop stop-opacity="1" stop-color="rgb(47.517395%, 43.014526%, 94.656372%)" offset="0.4375"/><stop stop-opacity="1" stop-color="rgb(48.040771%, 42.984009%, 94.477844%)" offset="0.441406"/><stop stop-opacity="1" stop-color="rgb(48.565674%, 42.953491%, 94.300842%)" offset="0.445312"/><stop stop-opacity="1" stop-color="rgb(49.090576%, 42.922974%, 94.122314%)" offset="0.449219"/><stop stop-opacity="1" stop-color="rgb(49.615479%, 42.893982%, 93.943787%)" offset="0.453125"/><stop stop-opacity="1" stop-color="rgb(50.138855%, 42.863464%, 93.765259%)" offset="0.457031"/><stop stop-opacity="1" stop-color="rgb(50.663757%, 42.832947%, 93.588257%)" offset="0.460938"/><stop stop-opacity="1" stop-color="rgb(51.187134%, 42.802429%, 93.409729%)" offset="0.464844"/><stop stop-opacity="1" stop-color="rgb(51.712036%, 42.773438%, 93.232727%)" offset="0.46875"/><stop stop-opacity="1" stop-color="rgb(52.236938%, 42.74292%, 93.054199%)" offset="0.472656"/><stop stop-opacity="1" stop-color="rgb(52.761841%, 42.712402%, 92.877197%)" offset="0.476562"/><stop stop-opacity="1" stop-color="rgb(53.285217%, 42.681885%, 92.698669%)" offset="0.480469"/><stop stop-opacity="1" stop-color="rgb(53.81012%, 42.652893%, 92.521667%)" offset="0.484375"/><stop stop-opacity="1" stop-color="rgb(54.333496%, 42.622375%, 92.34314%)" offset="0.488281"/><stop stop-opacity="1" stop-color="rgb(54.858398%, 42.591858%, 92.166138%)" offset="0.492188"/><stop stop-opacity="1" stop-color="rgb(55.383301%, 42.56134%, 91.98761%)" offset="0.496094"/><stop stop-opacity="1" stop-color="rgb(55.908203%, 42.532349%, 91.810608%)" offset="0.5"/><stop stop-opacity="1" stop-color="rgb(56.43158%, 42.501831%, 91.63208%)" offset="0.503906"/><stop stop-opacity="1" stop-color="rgb(56.956482%, 42.471313%, 91.455078%)" offset="0.507812"/><stop stop-opacity="1" stop-color="rgb(57.479858%, 42.440796%, 91.27655%)" offset="0.511719"/><stop stop-opacity="1" stop-color="rgb(58.004761%, 42.411804%, 91.099548%)" offset="0.515625"/><stop stop-opacity="1" stop-color="rgb(58.529663%, 42.381287%, 90.921021%)" offset="0.519531"/><stop stop-opacity="1" stop-color="rgb(59.054565%, 42.350769%, 90.744019%)" offset="0.523438"/><stop stop-opacity="1" stop-color="rgb(59.577942%, 42.320251%, 90.565491%)" offset="0.527344"/><stop stop-opacity="1" stop-color="rgb(60.102844%, 42.29126%, 90.388489%)" offset="0.53125"/><stop stop-opacity="1" stop-color="rgb(60.627747%, 42.260742%, 90.209961%)" offset="0.535156"/><stop stop-opacity="1" stop-color="rgb(61.152649%, 42.230225%, 90.032959%)" offset="0.539062"/><stop stop-opacity="1" stop-color="rgb(61.676025%, 42.199707%, 89.854431%)" offset="0.542969"/><stop stop-opacity="1" stop-color="rgb(62.200928%, 42.170715%, 89.675903%)" offset="0.546875"/><stop stop-opacity="1" stop-color="rgb(62.724304%, 42.140198%, 89.497375%)" offset="0.550781"/><stop stop-opacity="1" stop-color="rgb(63.249207%, 42.10968%, 89.320374%)" offset="0.554688"/><stop stop-opacity="1" stop-color="rgb(63.774109%, 42.079163%, 89.141846%)" offset="0.558594"/><stop stop-opacity="1" stop-color="rgb(64.299011%, 42.050171%, 88.964844%)" offset="0.5625"/><stop stop-opacity="1" stop-color="rgb(64.822388%, 42.019653%, 88.786316%)" offset="0.566406"/><stop stop-opacity="1" stop-color="rgb(65.34729%, 41.989136%, 88.609314%)" offset="0.570312"/><stop stop-opacity="1" stop-color="rgb(65.870667%, 41.958618%, 88.430786%)" offset="0.574219"/><stop stop-opacity="1" stop-color="rgb(66.395569%, 41.929626%, 88.253784%)" offset="0.578125"/><stop stop-opacity="1" stop-color="rgb(66.920471%, 41.899109%, 88.075256%)" offset="0.582031"/><stop stop-opacity="1" stop-color="rgb(67.445374%, 41.868591%, 87.898254%)" offset="0.585938"/><stop stop-opacity="1" stop-color="rgb(67.96875%, 41.838074%, 87.719727%)" offset="0.589844"/><stop stop-opacity="1" stop-color="rgb(68.493652%, 41.809082%, 87.542725%)" offset="0.59375"/><stop stop-opacity="1" stop-color="rgb(69.017029%, 41.778564%, 87.364197%)" offset="0.597656"/><stop stop-opacity="1" stop-color="rgb(69.541931%, 41.748047%, 87.187195%)" offset="0.601562"/><stop stop-opacity="1" stop-color="rgb(70.066833%, 41.717529%, 87.008667%)" offset="0.605469"/><stop stop-opacity="1" stop-color="rgb(70.591736%, 41.688538%, 86.831665%)" offset="0.609375"/><stop stop-opacity="1" stop-color="rgb(71.115112%, 41.65802%, 86.653137%)" offset="0.613281"/><stop stop-opacity="1" stop-color="rgb(71.640015%, 41.629028%, 86.476135%)" offset="0.617188"/><stop stop-opacity="1" stop-color="rgb(72.164917%, 41.598511%, 86.297607%)" offset="0.621094"/><stop stop-opacity="1" stop-color="rgb(72.689819%, 41.567993%, 86.120605%)" offset="0.625"/><stop stop-opacity="1" stop-color="rgb(73.213196%, 41.537476%, 85.942078%)" offset="0.628906"/><stop stop-opacity="1" stop-color="rgb(73.738098%, 41.508484%, 85.765076%)" offset="0.632812"/><stop stop-opacity="1" stop-color="rgb(74.261475%, 41.477966%, 85.586548%)" offset="0.636719"/><stop stop-opacity="1" stop-color="rgb(74.786377%, 41.447449%, 85.40802%)" offset="0.640625"/><stop stop-opacity="1" stop-color="rgb(75.311279%, 41.416931%, 85.229492%)" offset="0.644531"/><stop stop-opacity="1" stop-color="rgb(75.836182%, 41.387939%, 85.05249%)" offset="0.648438"/><stop stop-opacity="1" stop-color="rgb(76.359558%, 41.357422%, 84.873962%)" offset="0.652344"/><stop stop-opacity="1" stop-color="rgb(76.88446%, 41.326904%, 84.69696%)" offset="0.65625"/><stop stop-opacity="1" stop-color="rgb(77.407837%, 41.296387%, 84.518433%)" offset="0.660156"/><stop stop-opacity="1" stop-color="rgb(77.932739%, 41.267395%, 84.341431%)" offset="0.664062"/><stop stop-opacity="1" stop-color="rgb(78.457642%, 41.236877%, 84.162903%)" offset="0.667969"/><stop stop-opacity="1" stop-color="rgb(78.982544%, 41.20636%, 83.985901%)" offset="0.671875"/><stop stop-opacity="1" stop-color="rgb(79.50592%, 41.175842%, 83.807373%)" offset="0.675781"/><stop stop-opacity="1" stop-color="rgb(80.030823%, 41.146851%, 83.630371%)" offset="0.679687"/><stop stop-opacity="1" stop-color="rgb(80.554199%, 41.116333%, 83.451843%)" offset="0.683594"/><stop stop-opacity="1" stop-color="rgb(81.079102%, 41.085815%, 83.274841%)" offset="0.6875"/><stop stop-opacity="1" stop-color="rgb(81.604004%, 41.055298%, 83.096313%)" offset="0.691406"/><stop stop-opacity="1" stop-color="rgb(82.128906%, 41.026306%, 82.919312%)" offset="0.695313"/><stop stop-opacity="1" stop-color="rgb(82.652283%, 40.995789%, 82.740784%)" offset="0.699219"/><stop stop-opacity="1" stop-color="rgb(83.177185%, 40.965271%, 82.563782%)" offset="0.703125"/><stop stop-opacity="1" stop-color="rgb(83.702087%, 40.934753%, 82.385254%)" offset="0.707031"/><stop stop-opacity="1" stop-color="rgb(84.22699%, 40.905762%, 82.208252%)" offset="0.710938"/><stop stop-opacity="1" stop-color="rgb(84.750366%, 40.875244%, 82.029724%)" offset="0.714844"/><stop stop-opacity="1" stop-color="rgb(85.275269%, 40.844727%, 81.852722%)" offset="0.71875"/><stop stop-opacity="1" stop-color="rgb(85.798645%, 40.814209%, 81.674194%)" offset="0.722656"/><stop stop-opacity="1" stop-color="rgb(86.323547%, 40.785217%, 81.497192%)" offset="0.726562"/><stop stop-opacity="1" stop-color="rgb(86.84845%, 40.7547%, 81.318665%)" offset="0.730469"/><stop stop-opacity="1" stop-color="rgb(87.373352%, 40.724182%, 81.140137%)" offset="0.734375"/><stop stop-opacity="1" stop-color="rgb(87.896729%, 40.693665%, 80.961609%)" offset="0.738281"/><stop stop-opacity="1" stop-color="rgb(88.421631%, 40.664673%, 80.784607%)" offset="0.742188"/><stop stop-opacity="1" stop-color="rgb(88.945007%, 40.634155%, 80.606079%)" offset="0.746094"/><stop stop-opacity="1" stop-color="rgb(89.46991%, 40.603638%, 80.429077%)" offset="0.75"/><stop stop-opacity="1" stop-color="rgb(89.994812%, 40.57312%, 80.250549%)" offset="0.753906"/><stop stop-opacity="1" stop-color="rgb(90.519714%, 40.544128%, 80.073547%)" offset="0.757812"/><stop stop-opacity="1" stop-color="rgb(91.043091%, 40.513611%, 79.89502%)" offset="0.761719"/><stop stop-opacity="1" stop-color="rgb(91.567993%, 40.483093%, 79.718018%)" offset="0.765625"/><stop stop-opacity="1" stop-color="rgb(92.09137%, 40.452576%, 79.53949%)" offset="0.769531"/><stop stop-opacity="1" stop-color="rgb(92.616272%, 40.423584%, 79.362488%)" offset="0.773438"/><stop stop-opacity="1" stop-color="rgb(93.141174%, 40.393066%, 79.18396%)" offset="0.777344"/><stop stop-opacity="1" stop-color="rgb(93.666077%, 40.362549%, 79.006958%)" offset="0.78125"/><stop stop-opacity="1" stop-color="rgb(94.189453%, 40.332031%, 78.82843%)" offset="0.785156"/><stop stop-opacity="1" stop-color="rgb(94.714355%, 40.30304%, 78.651428%)" offset="0.789063"/><stop stop-opacity="1" stop-color="rgb(95.239258%, 40.272522%, 78.4729%)" offset="0.792969"/><stop stop-opacity="1" stop-color="rgb(95.76416%, 40.242004%, 78.295898%)" offset="0.796875"/><stop stop-opacity="1" stop-color="rgb(96.287537%, 40.211487%, 78.117371%)" offset="0.800781"/><stop stop-opacity="1" stop-color="rgb(96.812439%, 40.182495%, 77.940369%)" offset="0.804688"/><stop stop-opacity="1" stop-color="rgb(97.335815%, 40.151978%, 77.761841%)" offset="0.808594"/><stop stop-opacity="1" stop-color="rgb(97.860718%, 40.12146%, 77.584839%)" offset="0.8125"/><stop stop-opacity="1" stop-color="rgb(98.38562%, 40.090942%, 77.406311%)" offset="0.816406"/><stop stop-opacity="1" stop-color="rgb(98.910522%, 40.061951%, 77.229309%)" offset="0.820312"/><stop stop-opacity="1" stop-color="rgb(99.433899%, 40.031433%, 77.050781%)" offset="0.824219"/><stop stop-opacity="1" stop-color="rgb(99.958801%, 40.000916%, 76.872253%)" offset="0.828125"/><stop stop-opacity="1" stop-color="rgb(99.978638%, 39.99939%, 76.864624%)" offset="0.84375"/><stop stop-opacity="1" stop-color="rgb(100%, 39.99939%, 76.858521%)" offset="0.875"/><stop stop-opacity="1" stop-color="rgb(100%, 39.99939%, 76.858521%)" offset="1"/></linearGradient><clipPath id="09068e248a"><rect x="0" width="1230" y="0" height="692"/></clipPath><clipPath id="86ce1306bf"><rect x="0" width="1230" y="0" height="692"/></clipPath><clipPath id="5713081f66"><rect x="0" width="256" y="0" height="566"/></clipPath></defs><g clip-path="url(#c3b32163a2)"><g transform="matrix(1, 0, 0, 1, 0, -0.000000000000066872)"><g clip-path="url(#86ce1306bf)"><g clip-path="url(#f8d9a674cf)"><g mask="url(#271328ea81)"><g transform="matrix(1, 0, 0, 1, 0, -0.000000000000066872)"><g clip-path="url(#09068e248a)"><g clip-path="url(#f16a03e92a)"><path fill="url(#11bd726b7f)" d="M 0.886719 0 L 0.886719 692 L 1229.113281 692 L 1229.113281 0 Z M 0.886719 0 " fill-rule="nonzero"/></g></g></g></g></g></g></g></g><g fill="#000000" fill-opacity="1"><g transform="translate(790.818482, 534.018074)"><g/></g></g><g fill="#000000" fill-opacity="1"><g transform="translate(805.656446, 534.018074)"><g><path d="M 31.234375 0 L 26.15625 -12.96875 L 9.8125 -12.96875 L 4.796875 0 L 0 0 L 16.125 -40.953125 L 20.109375 -40.953125 L 36.15625 0 Z M 24.6875 -17.234375 L 19.9375 -29.875 C 19.320312 -31.46875 18.691406 -33.429688 18.046875 -35.765625 C 17.640625 -33.972656 17.054688 -32.007812 16.296875 -29.875 L 11.484375 -17.234375 Z M 24.6875 -17.234375 "/></g></g></g><g fill="#000000" fill-opacity="1"><g transform="translate(841.800669, 534.018074)"><g><path d="M 30.3125 0 L 2.28125 0 L 2.28125 -3.703125 L 23.9375 -36.515625 L 2.953125 -36.515625 L 2.953125 -40.78125 L 29.703125 -40.78125 L 29.703125 -37.0625 L 8.0625 -4.296875 L 30.3125 -4.296875 Z M 30.3125 0 "/></g></g></g><g fill="#000000" fill-opacity="1"><g transform="translate(874.402987, 534.018074)"><g><path d="M 36.40625 -40.78125 L 36.40625 -14.390625 C 36.40625 -9.742188 35 -6.085938 32.1875 -3.421875 C 29.382812 -0.765625 25.523438 0.5625 20.609375 0.5625 C 15.703125 0.5625 11.90625 -0.773438 9.21875 -3.453125 C 6.53125 -6.128906 5.1875 -9.8125 5.1875 -14.5 L 5.1875 -40.78125 L 9.9375 -40.78125 L 9.9375 -14.171875 C 9.9375 -10.765625 10.863281 -8.148438 12.71875 -6.328125 C 14.582031 -4.503906 17.316406 -3.59375 20.921875 -3.59375 C 24.359375 -3.59375 27.003906 -4.507812 28.859375 -6.34375 C 30.722656 -8.175781 31.65625 -10.800781 31.65625 -14.21875 L 31.65625 -40.78125 Z M 36.40625 -40.78125 "/></g></g></g><g fill="#000000" fill-opacity="1"><g transform="translate(915.985582, 534.018074)"><g><path d="M 23.65625 0 L 9.8125 -36.15625 L 9.59375 -36.15625 C 9.851562 -33.289062 9.984375 -29.882812 9.984375 -25.9375 L 9.984375 0 L 5.609375 0 L 5.609375 -40.78125 L 12.75 -40.78125 L 25.65625 -7.140625 L 25.890625 -7.140625 L 38.90625 -40.78125 L 46 -40.78125 L 46 0 L 41.25 0 L 41.25 -26.28125 C 41.25 -29.289062 41.378906 -32.5625 41.640625 -36.09375 L 41.421875 -36.09375 L 27.46875 0 Z M 23.65625 0 "/></g></g></g><g fill="#000000" fill-opacity="1"><g transform="translate(967.552462, 534.018074)"><g><path d="M 5.609375 0 L 5.609375 -40.78125 L 10.34375 -40.78125 L 10.34375 0 Z M 5.609375 0 "/></g></g></g><g transform="matrix(1, 0, 0, 1, 110, 48)"><g clip-path="url(#5713081f66)"><g fill="#000000" fill-opacity="1"><g transform="translate(0.306491, 397.451896)"><g><path d="M 221.96875 -152.890625 C 234.644531 -152.890625 240.984375 -147.972656 240.984375 -138.140625 C 240.984375 -137.109375 240.722656 -135.039062 240.203125 -131.9375 C 235.804688 -117.96875 226.101562 -110.984375 211.09375 -110.984375 L 151.71875 -110.984375 L 138.140625 -60.140625 C 136.328125 -52.898438 133.15625 -47.46875 128.625 -43.84375 C 124.101562 -40.226562 118.867188 -38.421875 112.921875 -38.421875 C 106.972656 -38.421875 102.25 -40.035156 98.75 -43.265625 C 95.257812 -46.503906 93.515625 -50.96875 93.515625 -56.65625 C 93.515625 -59.5 93.90625 -62.472656 94.6875 -65.578125 L 107.09375 -110.984375 L 49.671875 -110.984375 C 43.460938 -110.984375 38.738281 -112.210938 35.5 -114.671875 C 32.269531 -117.128906 30.65625 -120.554688 30.65625 -124.953125 C 30.65625 -127.023438 31.039062 -129.351562 31.8125 -131.9375 C 33.625 -138.664062 36.988281 -143.835938 41.90625 -147.453125 C 46.820312 -151.078125 53.03125 -152.890625 60.53125 -152.890625 L 118.359375 -152.890625 L 131.9375 -203.71875 C 133.75 -210.96875 136.851562 -216.398438 141.25 -220.015625 C 145.644531 -223.640625 150.816406 -225.453125 156.765625 -225.453125 C 162.722656 -225.453125 167.445312 -223.832031 170.9375 -220.59375 C 174.425781 -217.363281 176.171875 -212.90625 176.171875 -207.21875 C 176.171875 -204.375 175.785156 -201.398438 175.015625 -198.296875 L 162.984375 -152.890625 Z M 221.96875 -152.890625 "/></g></g></g></g></g></svg>