<svg xmlns="http://www.w3.org/2000/svg" xmlns:xlink="http://www.w3.org/1999/xlink" width="1640" zoomAndPan="magnify" viewBox="0 0 1230 693.000001" height="924" preserveAspectRatio="xMidYMid meet" version="1.0"><defs><g/><clipPath id="52fd7e6be4"><rect x="0" width="406" y="0" height="692"/></clipPath></defs><g transform="matrix(1, 0, 0, 1, 394, -0.000000000000066872)"><g clip-path="url(#52fd7e6be4)"><g fill="#fefefe" fill-opacity="1"><g transform="translate(0.954852, 549.550736)"><g><path d="M 352.171875 -242.578125 C 372.273438 -242.578125 382.328125 -234.773438 382.328125 -219.171875 C 382.328125 -217.535156 381.914062 -214.253906 381.09375 -209.328125 C 374.125 -187.160156 358.734375 -176.078125 334.921875 -176.078125 L 240.734375 -176.078125 L 219.171875 -95.421875 C 216.304688 -83.929688 211.28125 -75.3125 204.09375 -69.5625 C 196.914062 -63.820312 188.601562 -60.953125 179.15625 -60.953125 C 169.71875 -60.953125 162.226562 -63.515625 156.6875 -68.640625 C 151.144531 -73.773438 148.375 -80.859375 148.375 -89.890625 C 148.375 -94.398438 148.988281 -99.117188 150.21875 -104.046875 L 169.921875 -176.078125 L 78.8125 -176.078125 C 68.957031 -176.078125 61.460938 -178.023438 56.328125 -181.921875 C 51.203125 -185.828125 48.640625 -191.269531 48.640625 -198.25 C 48.640625 -201.53125 49.253906 -205.222656 50.484375 -209.328125 C 53.359375 -219.992188 58.691406 -228.203125 66.484375 -233.953125 C 74.285156 -239.703125 84.140625 -242.578125 96.046875 -242.578125 L 187.78125 -242.578125 L 209.328125 -323.234375 C 212.203125 -334.722656 217.128906 -343.335938 224.109375 -349.078125 C 231.085938 -354.828125 239.296875 -357.703125 248.734375 -357.703125 C 258.171875 -357.703125 265.660156 -355.132812 271.203125 -350 C 276.742188 -344.875 279.515625 -337.796875 279.515625 -328.765625 C 279.515625 -324.253906 278.898438 -319.535156 277.671875 -314.609375 L 258.578125 -242.578125 Z M 352.171875 -242.578125 "/></g></g></g></g></g></svg>