<svg xmlns="http://www.w3.org/2000/svg" xmlns:xlink="http://www.w3.org/1999/xlink" width="1640" zoomAndPan="magnify" viewBox="0 0 1230 693.000001" height="924" preserveAspectRatio="xMidYMid meet" version="1.0"><defs><filter x="0%" y="0%" width="100%" height="100%" id="444b199aa4"><feColorMatrix values="0 0 0 0 1 0 0 0 0 1 0 0 0 0 1 0 0 0 1 0" color-interpolation-filters="sRGB"/></filter><g/><clipPath id="8c0cd5ce1c"><rect x="0" width="628" y="0" height="367"/></clipPath><clipPath id="3a8b14c6a4"><path d="M 0.886719 0 L 1143 0 L 1143 692 L 0.886719 692 Z M 0.886719 0 " clip-rule="nonzero"/></clipPath><clipPath id="e4e729107a"><path d="M 0.886719 0 L 1141.082031 0 L 1141.082031 692 L 0.886719 692 Z M 0.886719 0 " clip-rule="nonzero"/></clipPath><clipPath id="27f518726b"><path d="M 0.886719 0 L 1141.082031 0 L 1141.082031 692 L 0.886719 692 Z M 0.886719 0 " clip-rule="nonzero"/></clipPath><clipPath id="fc52e23f5a"><path d="M 0.886719 0 L 1141.082031 0 L 1141.082031 692 L 0.886719 692 Z M 0.886719 0 " clip-rule="nonzero"/></clipPath><clipPath id="4e2458c4de"><rect x="0" width="1142" y="0" height="692"/></clipPath><clipPath id="5363433b6b"><rect x="0" width="1142" y="0" height="692"/></clipPath><mask id="884220867e"><g filter="url(#444b199aa4)"><g transform="matrix(1, 0, 0, 1, 0, -0.000000000000066872)"><g clip-path="url(#5363433b6b)"><g clip-path="url(#fc52e23f5a)"><g transform="matrix(1, 0, 0, 1, 0, -0.000000000000066872)"><g clip-path="url(#4e2458c4de)"><g fill="#000000" fill-opacity="1"><g transform="translate(110.306491, 445.451889)"><g><path d="M 221.96875 -152.890625 C 234.644531 -152.890625 240.984375 -147.972656 240.984375 -138.140625 C 240.984375 -137.109375 240.722656 -135.039062 240.203125 -131.9375 C 235.804688 -117.96875 226.101562 -110.984375 211.09375 -110.984375 L 151.71875 -110.984375 L 138.140625 -60.140625 C 136.328125 -52.898438 133.15625 -47.46875 128.625 -43.84375 C 124.101562 -40.226562 118.867188 -38.421875 112.921875 -38.421875 C 106.972656 -38.421875 102.25 -40.035156 98.75 -43.265625 C 95.257812 -46.503906 93.515625 -50.96875 93.515625 -56.65625 C 93.515625 -59.5 93.90625 -62.472656 94.6875 -65.578125 L 107.09375 -110.984375 L 49.671875 -110.984375 C 43.460938 -110.984375 38.738281 -112.210938 35.5 -114.671875 C 32.269531 -117.128906 30.65625 -120.554688 30.65625 -124.953125 C 30.65625 -127.023438 31.039062 -129.351562 31.8125 -131.9375 C 33.625 -138.664062 36.988281 -143.835938 41.90625 -147.453125 C 46.820312 -151.078125 53.03125 -152.890625 60.53125 -152.890625 L 118.359375 -152.890625 L 131.9375 -203.71875 C 133.75 -210.96875 136.851562 -216.398438 141.25 -220.015625 C 145.644531 -223.640625 150.816406 -225.453125 156.765625 -225.453125 C 162.722656 -225.453125 167.445312 -223.832031 170.9375 -220.59375 C 174.425781 -217.363281 176.171875 -212.90625 176.171875 -207.21875 C 176.171875 -204.375 175.785156 -201.398438 175.015625 -198.296875 L 162.984375 -152.890625 Z M 221.96875 -152.890625 "/></g></g></g></g></g></g></g></g></g></mask><clipPath id="e00f5921e0"><path d="M 0.886719 0 L 1141.082031 0 L 1141.082031 692 L 0.886719 692 Z M 0.886719 0 " clip-rule="nonzero"/></clipPath><linearGradient x1="-120.250746" gradientTransform="matrix(0.910309, 0, 0, 0.91034, 110.351544, 60.350334)" y1="297.5" x2="1132.286" gradientUnits="userSpaceOnUse" y2="297.5" id="d28ca65095"><stop stop-opacity="1" stop-color="rgb(31.759644%, 43.919373%, 100%)" offset="0"/><stop stop-opacity="1" stop-color="rgb(31.759644%, 43.919373%, 100%)" offset="0.0625"/><stop stop-opacity="1" stop-color="rgb(31.759644%, 43.919373%, 100%)" offset="0.09375"/><stop stop-opacity="1" stop-color="rgb(32.606506%, 43.870544%, 99.711609%)" offset="0.0976563"/><stop stop-opacity="1" stop-color="rgb(33.454895%, 43.821716%, 99.424744%)" offset="0.101563"/><stop stop-opacity="1" stop-color="rgb(34.646606%, 43.753052%, 99.020386%)" offset="0.105469"/><stop stop-opacity="1" stop-color="rgb(35.839844%, 43.684387%, 98.616028%)" offset="0.109375"/><stop stop-opacity="1" stop-color="rgb(37.033081%, 43.615723%, 98.210144%)" offset="0.113281"/><stop stop-opacity="1" stop-color="rgb(38.226318%, 43.547058%, 97.805786%)" offset="0.117188"/><stop stop-opacity="1" stop-color="rgb(39.41803%, 43.478394%, 97.401428%)" offset="0.121094"/><stop stop-opacity="1" stop-color="rgb(40.611267%, 43.411255%, 96.99707%)" offset="0.125"/><stop stop-opacity="1" stop-color="rgb(41.802979%, 43.34259%, 96.592712%)" offset="0.128906"/><stop stop-opacity="1" stop-color="rgb(42.996216%, 43.273926%, 96.188354%)" offset="0.132813"/><stop stop-opacity="1" stop-color="rgb(44.187927%, 43.205261%, 95.783997%)" offset="0.136719"/><stop stop-opacity="1" stop-color="rgb(45.381165%, 43.136597%, 95.379639%)" offset="0.140625"/><stop stop-opacity="1" stop-color="rgb(46.572876%, 43.067932%, 94.975281%)" offset="0.144531"/><stop stop-opacity="1" stop-color="rgb(47.766113%, 42.999268%, 94.570923%)" offset="0.148438"/><stop stop-opacity="1" stop-color="rgb(48.957825%, 42.930603%, 94.166565%)" offset="0.152344"/><stop stop-opacity="1" stop-color="rgb(50.151062%, 42.863464%, 93.762207%)" offset="0.15625"/><stop stop-opacity="1" stop-color="rgb(51.342773%, 42.7948%, 93.357849%)" offset="0.160156"/><stop stop-opacity="1" stop-color="rgb(52.536011%, 42.726135%, 92.953491%)" offset="0.164063"/><stop stop-opacity="1" stop-color="rgb(53.727722%, 42.657471%, 92.549133%)" offset="0.167969"/><stop stop-opacity="1" stop-color="rgb(54.920959%, 42.588806%, 92.144775%)" offset="0.171875"/><stop stop-opacity="1" stop-color="rgb(56.112671%, 42.520142%, 91.740417%)" offset="0.175781"/><stop stop-opacity="1" stop-color="rgb(57.305908%, 42.451477%, 91.33606%)" offset="0.179688"/><stop stop-opacity="1" stop-color="rgb(58.49762%, 42.382812%, 90.931702%)" offset="0.183594"/><stop stop-opacity="1" stop-color="rgb(59.690857%, 42.314148%, 90.527344%)" offset="0.1875"/><stop stop-opacity="1" stop-color="rgb(60.882568%, 42.245483%, 90.122986%)" offset="0.191406"/><stop stop-opacity="1" stop-color="rgb(62.075806%, 42.178345%, 89.718628%)" offset="0.195313"/><stop stop-opacity="1" stop-color="rgb(63.267517%, 42.10968%, 89.31427%)" offset="0.199219"/><stop stop-opacity="1" stop-color="rgb(64.460754%, 42.041016%, 88.909912%)" offset="0.203125"/><stop stop-opacity="1" stop-color="rgb(65.652466%, 41.972351%, 88.505554%)" offset="0.207031"/><stop stop-opacity="1" stop-color="rgb(66.845703%, 41.903687%, 88.101196%)" offset="0.210938"/><stop stop-opacity="1" stop-color="rgb(68.037415%, 41.835022%, 87.696838%)" offset="0.214844"/><stop stop-opacity="1" stop-color="rgb(69.230652%, 41.766357%, 87.29248%)" offset="0.21875"/><stop stop-opacity="1" stop-color="rgb(70.422363%, 41.697693%, 86.888123%)" offset="0.222656"/><stop stop-opacity="1" stop-color="rgb(71.615601%, 41.629028%, 86.483765%)" offset="0.226563"/><stop stop-opacity="1" stop-color="rgb(72.807312%, 41.560364%, 86.079407%)" offset="0.230469"/><stop stop-opacity="1" stop-color="rgb(74.000549%, 41.493225%, 85.675049%)" offset="0.234375"/><stop stop-opacity="1" stop-color="rgb(75.192261%, 41.424561%, 85.270691%)" offset="0.238281"/><stop stop-opacity="1" stop-color="rgb(76.385498%, 41.355896%, 84.866333%)" offset="0.242188"/><stop stop-opacity="1" stop-color="rgb(77.577209%, 41.287231%, 84.461975%)" offset="0.246094"/><stop stop-opacity="1" stop-color="rgb(78.770447%, 41.218567%, 84.057617%)" offset="0.25"/><stop stop-opacity="1" stop-color="rgb(79.962158%, 41.149902%, 83.653259%)" offset="0.253906"/><stop stop-opacity="1" stop-color="rgb(81.155396%, 41.081238%, 83.248901%)" offset="0.257812"/><stop stop-opacity="1" stop-color="rgb(82.347107%, 41.012573%, 82.844543%)" offset="0.261719"/><stop stop-opacity="1" stop-color="rgb(83.540344%, 40.945435%, 82.440186%)" offset="0.265625"/><stop stop-opacity="1" stop-color="rgb(84.732056%, 40.87677%, 82.035828%)" offset="0.269531"/><stop stop-opacity="1" stop-color="rgb(85.925293%, 40.808105%, 81.63147%)" offset="0.273438"/><stop stop-opacity="1" stop-color="rgb(87.117004%, 40.739441%, 81.227112%)" offset="0.277344"/><stop stop-opacity="1" stop-color="rgb(88.310242%, 40.670776%, 80.822754%)" offset="0.28125"/><stop stop-opacity="1" stop-color="rgb(89.501953%, 40.602112%, 80.418396%)" offset="0.285156"/><stop stop-opacity="1" stop-color="rgb(90.69519%, 40.533447%, 80.014038%)" offset="0.289063"/><stop stop-opacity="1" stop-color="rgb(91.886902%, 40.464783%, 79.60968%)" offset="0.292969"/><stop stop-opacity="1" stop-color="rgb(93.080139%, 40.396118%, 79.205322%)" offset="0.296875"/><stop stop-opacity="1" stop-color="rgb(94.271851%, 40.327454%, 78.800964%)" offset="0.300781"/><stop stop-opacity="1" stop-color="rgb(95.465088%, 40.260315%, 78.396606%)" offset="0.304688"/><stop stop-opacity="1" stop-color="rgb(96.656799%, 40.19165%, 77.992249%)" offset="0.308594"/><stop stop-opacity="1" stop-color="rgb(97.850037%, 40.122986%, 77.587891%)" offset="0.3125"/><stop stop-opacity="1" stop-color="rgb(98.924255%, 40.060425%, 77.223206%)" offset="0.316406"/><stop stop-opacity="1" stop-color="rgb(100%, 39.99939%, 76.858521%)" offset="0.320312"/><stop stop-opacity="1" stop-color="rgb(100%, 39.99939%, 76.858521%)" offset="0.328125"/><stop stop-opacity="1" stop-color="rgb(100%, 39.99939%, 76.858521%)" offset="0.34375"/><stop stop-opacity="1" stop-color="rgb(100%, 39.99939%, 76.858521%)" offset="0.375"/><stop stop-opacity="1" stop-color="rgb(100%, 39.99939%, 76.858521%)" offset="0.5"/><stop stop-opacity="1" stop-color="rgb(100%, 39.99939%, 76.858521%)" offset="1"/></linearGradient><clipPath id="a4abae0e02"><rect x="0" width="1142" y="0" height="692"/></clipPath><clipPath id="1769ddeeed"><rect x="0" width="1142" y="0" height="692"/></clipPath><clipPath id="9c8e7d8022"><rect x="0" width="1143" y="0" height="692"/></clipPath></defs><g transform="matrix(1, 0, 0, 1, 394, 162)"><g clip-path="url(#8c0cd5ce1c)"><g fill="#000000" fill-opacity="1"><g transform="translate(0.295365, 275.452119)"><g><path d="M 163.515625 -254.609375 L 184.734375 -254.609375 L 184.734375 1.46875 L 163.515625 1.46875 L 163.515625 -131.6875 L 46.828125 -131.6875 L 46.828125 1.46875 L 25.609375 1.46875 L 25.609375 -254.609375 L 46.828125 -254.609375 L 46.828125 -154.734375 L 163.515625 -154.734375 Z M 163.515625 -254.609375 "/></g></g></g><g fill="#000000" fill-opacity="1"><g transform="translate(210.633574, 275.452119)"><g><path d="M 88.890625 0 C 78.398438 0 68.582031 -2.375 59.4375 -7.125 C 50.300781 -11.882812 42.316406 -18.347656 35.484375 -26.515625 C 28.648438 -34.691406 23.34375 -43.773438 19.5625 -53.765625 C 15.789062 -63.765625 13.90625 -74.007812 13.90625 -84.5 L 13.90625 -184 L 34.75 -184 L 34.75 -88.53125 C 34.75 -78.28125 37.125 -67.972656 41.875 -57.609375 C 46.632812 -47.242188 53.097656 -38.585938 61.265625 -31.640625 C 69.441406 -24.691406 78.648438 -21.21875 88.890625 -21.21875 L 98.03125 -21.21875 C 107.539062 -21.21875 116.078125 -23.65625 123.640625 -28.53125 C 131.203125 -33.40625 137.664062 -39.804688 143.03125 -47.734375 C 148.394531 -55.660156 152.421875 -64.378906 155.109375 -73.890625 L 155.109375 -184 L 176.328125 -184 L 176.328125 0 L 155.109375 0 L 155.109375 -35.484375 C 151.929688 -29.140625 147.171875 -23.222656 140.828125 -17.734375 C 134.492188 -12.253906 127.546875 -7.925781 119.984375 -4.75 C 112.421875 -1.582031 105.101562 0 98.03125 0 Z M 88.890625 0 "/></g></g></g><g fill="#000000" fill-opacity="1"><g transform="translate(412.558294, 275.452119)"><g><path d="M 110.84375 -184 C 121.332031 -184 131.144531 -181.5 140.28125 -176.5 C 149.425781 -171.5 157.472656 -164.851562 164.421875 -156.5625 C 171.378906 -148.269531 176.804688 -139.003906 180.703125 -128.765625 C 184.609375 -118.523438 186.5625 -108.160156 186.5625 -97.671875 L 186.5625 -83.765625 C 186.5625 -73.285156 184.609375 -63.046875 180.703125 -53.046875 C 176.804688 -43.046875 171.378906 -33.957031 164.421875 -25.78125 C 157.472656 -17.613281 149.425781 -11.148438 140.28125 -6.390625 C 131.144531 -1.640625 121.332031 0.734375 110.84375 0.734375 L 25.609375 0.734375 L 25.609375 -273.265625 L 46.453125 -273.265625 L 46.453125 -164.984375 C 53.523438 -170.585938 61.023438 -175.15625 68.953125 -178.6875 C 76.878906 -182.226562 87.796875 -184 101.703125 -184 C 108.523438 -184 112.910156 -184 114.859375 -184 C 116.816406 -184 117.367188 -184 116.515625 -184 C 115.660156 -184 114.5 -184 113.03125 -184 C 111.570312 -184 110.84375 -184 110.84375 -184 Z M 166.4375 -87.796875 L 166.4375 -93.640625 C 166.4375 -100.960938 165.09375 -108.523438 162.40625 -116.328125 C 159.726562 -124.128906 156.007812 -131.320312 151.25 -137.90625 C 146.5 -144.488281 141.195312 -149.367188 135.34375 -152.546875 C 133.644531 -153.765625 130.234375 -155.65625 125.109375 -158.21875 C 119.984375 -160.78125 112.789062 -162.0625 103.53125 -162.0625 C 90.351562 -162.0625 79.554688 -159.5625 71.140625 -154.5625 C 62.734375 -149.5625 56.515625 -143.765625 52.484375 -137.171875 C 48.460938 -130.585938 46.453125 -124.613281 46.453125 -119.25 L 46.453125 -21.21875 L 110.84375 -21.21875 C 121.082031 -21.21875 130.410156 -24.628906 138.828125 -31.453125 C 147.242188 -38.285156 153.945312 -46.820312 158.9375 -57.0625 C 163.9375 -67.3125 166.4375 -77.554688 166.4375 -87.796875 Z M 166.4375 -87.796875 "/></g></g></g></g></g><g fill="#000000" fill-opacity="1"><g transform="translate(790.818482, 534.018146)"><g/></g></g><g fill="#000000" fill-opacity="1"><g transform="translate(805.656446, 534.018146)"><g><path d="M 31.234375 0 L 26.15625 -12.96875 L 9.8125 -12.96875 L 4.796875 0 L 0 0 L 16.125 -40.953125 L 20.109375 -40.953125 L 36.15625 0 Z M 24.6875 -17.234375 L 19.9375 -29.875 C 19.320312 -31.46875 18.691406 -33.429688 18.046875 -35.765625 C 17.640625 -33.972656 17.054688 -32.007812 16.296875 -29.875 L 11.484375 -17.234375 Z M 24.6875 -17.234375 "/></g></g></g><g fill="#000000" fill-opacity="1"><g transform="translate(841.800669, 534.018146)"><g><path d="M 30.3125 0 L 2.28125 0 L 2.28125 -3.703125 L 23.9375 -36.515625 L 2.953125 -36.515625 L 2.953125 -40.78125 L 29.703125 -40.78125 L 29.703125 -37.0625 L 8.0625 -4.296875 L 30.3125 -4.296875 Z M 30.3125 0 "/></g></g></g><g fill="#000000" fill-opacity="1"><g transform="translate(874.402987, 534.018146)"><g><path d="M 36.40625 -40.78125 L 36.40625 -14.390625 C 36.40625 -9.742188 35 -6.085938 32.1875 -3.421875 C 29.382812 -0.765625 25.523438 0.5625 20.609375 0.5625 C 15.703125 0.5625 11.90625 -0.773438 9.21875 -3.453125 C 6.53125 -6.128906 5.1875 -9.8125 5.1875 -14.5 L 5.1875 -40.78125 L 9.9375 -40.78125 L 9.9375 -14.171875 C 9.9375 -10.765625 10.863281 -8.148438 12.71875 -6.328125 C 14.582031 -4.503906 17.316406 -3.59375 20.921875 -3.59375 C 24.359375 -3.59375 27.003906 -4.507812 28.859375 -6.34375 C 30.722656 -8.175781 31.65625 -10.800781 31.65625 -14.21875 L 31.65625 -40.78125 Z M 36.40625 -40.78125 "/></g></g></g><g fill="#000000" fill-opacity="1"><g transform="translate(915.985582, 534.018146)"><g><path d="M 23.65625 0 L 9.8125 -36.15625 L 9.59375 -36.15625 C 9.851562 -33.289062 9.984375 -29.882812 9.984375 -25.9375 L 9.984375 0 L 5.609375 0 L 5.609375 -40.78125 L 12.75 -40.78125 L 25.65625 -7.140625 L 25.890625 -7.140625 L 38.90625 -40.78125 L 46 -40.78125 L 46 0 L 41.25 0 L 41.25 -26.28125 C 41.25 -29.289062 41.378906 -32.5625 41.640625 -36.09375 L 41.421875 -36.09375 L 27.46875 0 Z M 23.65625 0 "/></g></g></g><g fill="#000000" fill-opacity="1"><g transform="translate(967.552462, 534.018146)"><g><path d="M 5.609375 0 L 5.609375 -40.78125 L 10.34375 -40.78125 L 10.34375 0 Z M 5.609375 0 "/></g></g></g><g clip-path="url(#3a8b14c6a4)"><g transform="matrix(1, 0, 0, 1, 0, -0.000000000000066872)"><g clip-path="url(#9c8e7d8022)"><g clip-path="url(#e4e729107a)"><g transform="matrix(1, 0, 0, 1, 0, -0.000000000000066872)"><g clip-path="url(#1769ddeeed)"><g clip-path="url(#27f518726b)"><g mask="url(#884220867e)"><g transform="matrix(1, 0, 0, 1, 0, -0.000000000000066872)"><g clip-path="url(#a4abae0e02)"><g clip-path="url(#e00f5921e0)"><path fill="url(#d28ca65095)" d="M 0.886719 0 L 0.886719 692 L 1141.082031 692 L 1141.082031 0 Z M 0.886719 0 " fill-rule="nonzero"/></g></g></g></g></g></g></g></g></g></g></g></svg>