<svg xmlns="http://www.w3.org/2000/svg" xmlns:xlink="http://www.w3.org/1999/xlink" width="1640" zoomAndPan="magnify" viewBox="0 0 1230 693.000001" height="924" preserveAspectRatio="xMidYMid meet" version="1.0"><defs><g/><clipPath id="f02875c0f8"><rect x="0" width="256" y="0" height="566"/></clipPath></defs><g fill="#fefefe" fill-opacity="1"><g transform="translate(394.295364, 437.243918)"><g><path d="M 163.515625 -254.59375 L 184.734375 -254.59375 L 184.734375 1.46875 L 163.515625 1.46875 L 163.515625 -131.6875 L 46.828125 -131.6875 L 46.828125 1.46875 L 25.609375 1.46875 L 25.609375 -254.59375 L 46.828125 -254.59375 L 46.828125 -154.734375 L 163.515625 -154.734375 Z M 163.515625 -254.59375 "/></g></g></g><g fill="#fefefe" fill-opacity="1"><g transform="translate(604.631268, 437.243918)"><g><path d="M 88.890625 0 C 78.398438 0 68.582031 -2.375 59.4375 -7.125 C 50.289062 -11.882812 42.300781 -18.347656 35.46875 -26.515625 C 28.644531 -34.691406 23.34375 -43.773438 19.5625 -53.765625 C 15.789062 -63.765625 13.90625 -74.007812 13.90625 -84.5 L 13.90625 -184 L 34.75 -184 L 34.75 -88.515625 C 34.75 -78.273438 37.125 -67.972656 41.875 -57.609375 C 46.632812 -47.242188 53.097656 -38.585938 61.265625 -31.640625 C 69.441406 -24.691406 78.648438 -21.21875 88.890625 -21.21875 L 98.03125 -21.21875 C 107.539062 -21.21875 116.078125 -23.65625 123.640625 -28.53125 C 131.203125 -33.40625 137.664062 -39.804688 143.03125 -47.734375 C 148.394531 -55.660156 152.414062 -64.378906 155.09375 -73.890625 L 155.09375 -184 L 176.3125 -184 L 176.3125 0 L 155.09375 0 L 155.09375 -35.484375 C 151.925781 -29.140625 147.171875 -23.222656 140.828125 -17.734375 C 134.492188 -12.253906 127.546875 -7.925781 119.984375 -4.75 C 112.421875 -1.582031 105.101562 0 98.03125 0 Z M 88.890625 0 "/></g></g></g><g fill="#fefefe" fill-opacity="1"><g transform="translate(806.553715, 437.243918)"><g><path d="M 110.84375 -184 C 121.320312 -184 131.132812 -181.5 140.28125 -176.5 C 149.425781 -171.5 157.472656 -164.851562 164.421875 -156.5625 C 171.367188 -148.269531 176.796875 -139 180.703125 -128.75 C 184.609375 -118.507812 186.5625 -108.148438 186.5625 -97.671875 L 186.5625 -83.765625 C 186.5625 -73.273438 184.609375 -63.03125 180.703125 -53.03125 C 176.796875 -43.039062 171.367188 -33.957031 164.421875 -25.78125 C 157.472656 -17.613281 149.425781 -11.148438 140.28125 -6.390625 C 131.132812 -1.640625 121.320312 0.734375 110.84375 0.734375 L 25.609375 0.734375 L 25.609375 -273.25 L 46.453125 -273.25 L 46.453125 -164.96875 C 53.523438 -170.582031 61.023438 -175.15625 68.953125 -178.6875 C 76.878906 -182.226562 87.789062 -184 101.6875 -184 C 108.519531 -184 112.910156 -184 114.859375 -184 C 116.804688 -184 117.351562 -184 116.5 -184 C 115.644531 -184 114.488281 -184 113.03125 -184 C 111.570312 -184 110.84375 -184 110.84375 -184 Z M 166.4375 -87.796875 L 166.4375 -93.640625 C 166.4375 -100.960938 165.09375 -108.523438 162.40625 -116.328125 C 159.726562 -124.128906 156.007812 -131.320312 151.25 -137.90625 C 146.5 -144.488281 141.195312 -149.363281 135.34375 -152.53125 C 133.632812 -153.75 130.21875 -155.640625 125.09375 -158.203125 C 119.976562 -160.765625 112.785156 -162.046875 103.515625 -162.046875 C 90.347656 -162.046875 79.554688 -159.546875 71.140625 -154.546875 C 62.734375 -149.546875 56.515625 -143.753906 52.484375 -137.171875 C 48.460938 -130.585938 46.453125 -124.613281 46.453125 -119.25 L 46.453125 -21.21875 L 110.84375 -21.21875 C 121.082031 -21.21875 130.40625 -24.628906 138.8125 -31.453125 C 147.226562 -38.285156 153.9375 -46.820312 158.9375 -57.0625 C 163.9375 -67.300781 166.4375 -77.546875 166.4375 -87.796875 Z M 166.4375 -87.796875 "/></g></g></g><g fill="#fefefe" fill-opacity="1"><g transform="translate(790.818482, 534.018146)"><g/></g></g><g fill="#fefefe" fill-opacity="1"><g transform="translate(805.656446, 534.018146)"><g><path d="M 31.234375 0 L 26.15625 -12.96875 L 9.8125 -12.96875 L 4.796875 0 L 0 0 L 16.125 -40.953125 L 20.109375 -40.953125 L 36.15625 0 Z M 24.6875 -17.234375 L 19.9375 -29.875 C 19.320312 -31.46875 18.691406 -33.429688 18.046875 -35.765625 C 17.640625 -33.972656 17.054688 -32.007812 16.296875 -29.875 L 11.484375 -17.234375 Z M 24.6875 -17.234375 "/></g></g></g><g fill="#fefefe" fill-opacity="1"><g transform="translate(841.800669, 534.018146)"><g><path d="M 30.3125 0 L 2.28125 0 L 2.28125 -3.703125 L 23.9375 -36.515625 L 2.953125 -36.515625 L 2.953125 -40.78125 L 29.703125 -40.78125 L 29.703125 -37.0625 L 8.0625 -4.296875 L 30.3125 -4.296875 Z M 30.3125 0 "/></g></g></g><g fill="#fefefe" fill-opacity="1"><g transform="translate(874.402987, 534.018146)"><g><path d="M 36.40625 -40.78125 L 36.40625 -14.390625 C 36.40625 -9.742188 35 -6.085938 32.1875 -3.421875 C 29.382812 -0.765625 25.523438 0.5625 20.609375 0.5625 C 15.703125 0.5625 11.90625 -0.773438 9.21875 -3.453125 C 6.53125 -6.128906 5.1875 -9.8125 5.1875 -14.5 L 5.1875 -40.78125 L 9.9375 -40.78125 L 9.9375 -14.171875 C 9.9375 -10.765625 10.863281 -8.148438 12.71875 -6.328125 C 14.582031 -4.503906 17.316406 -3.59375 20.921875 -3.59375 C 24.359375 -3.59375 27.003906 -4.507812 28.859375 -6.34375 C 30.722656 -8.175781 31.65625 -10.800781 31.65625 -14.21875 L 31.65625 -40.78125 Z M 36.40625 -40.78125 "/></g></g></g><g fill="#fefefe" fill-opacity="1"><g transform="translate(915.985582, 534.018146)"><g><path d="M 23.65625 0 L 9.8125 -36.15625 L 9.59375 -36.15625 C 9.851562 -33.289062 9.984375 -29.882812 9.984375 -25.9375 L 9.984375 0 L 5.609375 0 L 5.609375 -40.78125 L 12.75 -40.78125 L 25.65625 -7.140625 L 25.890625 -7.140625 L 38.90625 -40.78125 L 46 -40.78125 L 46 0 L 41.25 0 L 41.25 -26.28125 C 41.25 -29.289062 41.378906 -32.5625 41.640625 -36.09375 L 41.421875 -36.09375 L 27.46875 0 Z M 23.65625 0 "/></g></g></g><g fill="#fefefe" fill-opacity="1"><g transform="translate(967.552462, 534.018146)"><g><path d="M 5.609375 0 L 5.609375 -40.78125 L 10.34375 -40.78125 L 10.34375 0 Z M 5.609375 0 "/></g></g></g><g transform="matrix(1, 0, 0, 1, 110, 48)"><g clip-path="url(#f02875c0f8)"><g fill="#fefefe" fill-opacity="1"><g transform="translate(0.306491, 397.451889)"><g><path d="M 221.96875 -152.890625 C 234.644531 -152.890625 240.984375 -147.972656 240.984375 -138.140625 C 240.984375 -137.109375 240.722656 -135.039062 240.203125 -131.9375 C 235.804688 -117.96875 226.101562 -110.984375 211.09375 -110.984375 L 151.71875 -110.984375 L 138.140625 -60.140625 C 136.328125 -52.898438 133.15625 -47.46875 128.625 -43.84375 C 124.101562 -40.226562 118.867188 -38.421875 112.921875 -38.421875 C 106.972656 -38.421875 102.25 -40.035156 98.75 -43.265625 C 95.257812 -46.503906 93.515625 -50.96875 93.515625 -56.65625 C 93.515625 -59.5 93.90625 -62.472656 94.6875 -65.578125 L 107.09375 -110.984375 L 49.671875 -110.984375 C 43.460938 -110.984375 38.738281 -112.210938 35.5 -114.671875 C 32.269531 -117.128906 30.65625 -120.554688 30.65625 -124.953125 C 30.65625 -127.023438 31.039062 -129.351562 31.8125 -131.9375 C 33.625 -138.664062 36.988281 -143.835938 41.90625 -147.453125 C 46.820312 -151.078125 53.03125 -152.890625 60.53125 -152.890625 L 118.359375 -152.890625 L 131.9375 -203.71875 C 133.75 -210.96875 136.851562 -216.398438 141.25 -220.015625 C 145.644531 -223.640625 150.816406 -225.453125 156.765625 -225.453125 C 162.722656 -225.453125 167.445312 -223.832031 170.9375 -220.59375 C 174.425781 -217.363281 176.171875 -212.90625 176.171875 -207.21875 C 176.171875 -204.375 175.785156 -201.398438 175.015625 -198.296875 L 162.984375 -152.890625 Z M 221.96875 -152.890625 "/></g></g></g></g></g></svg>